# File exported by Houdini 16.0.600 (www.sidefx.com)
# 4 points
# 12 vertices
# 4 primitives
# Bounds: [-0.018856205, -0.0163299516, -1.29999995] to [0.00942810252, 0.0163299516, 0.0333296955]
g 
v 0 6.12323426e-17 -1.29999995
v -0.018856205 -2.04105592e-17 0.0333296955
v 0.00942810252 0.0163299516 0.0333296955
v 0.00942810252 -0.0163299516 0.0333296955
vn 0.999975026 -0 -0.0070709195
vn 0.999975085 -0 -0.00707091996
vn 0.999975085 -0 -0.00707091996
vn -0.499987572 -0.866003811 -0.00707091996
vn -0.499987543 -0.866003811 -0.0070709195
vn -0.499987543 -0.866003811 -0.0070709195
vn -0.499987572 0.866003811 -0.00707091996
vn -0.499987543 0.866003811 -0.0070709195
vn -0.499987543 0.866003811 -0.0070709195
vn 0 0 1
vn 0 0 1
vn 0 0 1
g Spike
f 1//1 3//2 4//3
f 1//4 4//5 2//6
f 1//7 2//8 3//9
f 2//10 4//11 3//12
