# File exported by Houdini 16.0.600 (www.sidefx.com)
# 48 points
# 192 vertices
# 48 primitives
# Bounds: [-0.670000017, -0.147224322, -0.670000017] to [0.670000017, 0.147224382, 0.670000017]
g 
v 0.670000017 -1.48618717e-08 -2.02334377e-07
v 0.473761499 -1.48618717e-08 -0.473761618
v 7.98967026e-09 -1.48618717e-08 -0.670000017
v -0.473761469 -1.48618717e-08 -0.473761618
v -0.670000017 -1.48618717e-08 -5.857326e-08
v -0.473761559 -1.48618717e-08 0.473761559
v -2.928663e-08 -1.48618717e-08 0.670000017
v 0.473761559 -1.48618717e-08 0.473761559
v 0.584999979 -0.147224322 -1.76665083e-07
v 0.413657397 -0.147224322 -0.413657516
v 6.97605484e-09 -0.147224322 -0.584999979
v -0.413657367 -0.147224322 -0.413657516
v -0.584999979 -0.147224322 -5.11423224e-08
v -0.413657457 -0.147224322 0.413657457
v -2.55711612e-08 -0.147224322 0.584999979
v 0.413657457 -0.147224322 0.413657457
v 0.415000021 -0.147224322 -1.25326522e-07
v 0.293449312 -0.147224322 -0.293449372
v 4.94882579e-09 -0.147224322 -0.415000021
v -0.293449283 -0.147224322 -0.293449372
v -0.415000021 -0.147224322 -3.62804542e-08
v -0.293449312 -0.147224322 0.293449312
v -1.81402271e-08 -0.147224322 0.415000021
v 0.293449312 -0.147224322 0.293449312
v 0.329999983 -5.13385743e-08 -9.96572211e-08
v 0.233345196 -5.13385743e-08 -0.233345255
v 3.93521038e-09 -5.13385743e-08 -0.329999983
v -0.233345181 -5.13385743e-08 -0.233345255
v -0.329999983 -5.13385743e-08 -2.88495148e-08
v -0.233345225 -5.13385743e-08 0.233345225
v -1.44247574e-08 -5.13385743e-08 0.329999983
v 0.233345225 -5.13385743e-08 0.233345225
v 0.414999932 0.147224277 -1.25326494e-07
v 0.293449223 0.147224277 -0.293449312
v 4.94882446e-09 0.147224277 -0.414999932
v -0.293449223 0.147224277 -0.293449312
v -0.414999932 0.147224277 -3.62804471e-08
v -0.293449253 0.147224277 0.293449253
v -1.81402235e-08 0.147224277 0.414999932
v 0.293449253 0.147224277 0.293449253
v 0.584999919 0.147224382 -1.76665068e-07
v 0.413657367 0.147224382 -0.413657486
v 6.9760544e-09 0.147224382 -0.584999919
v -0.413657337 0.147224382 -0.413657486
v -0.584999919 0.147224382 -5.11423188e-08
v -0.413657397 0.147224382 0.413657397
v -2.55711594e-08 0.147224382 0.584999919
v 0.413657397 0.147224382 0.413657397
vn 1 2.65259814e-08 -2.05576356e-07
vn 0.582076609 -0.813133836 -1.20684803e-07
vn 0.411590338 -0.813133955 -0.411590427
vn 0.70710665 -1.3262988e-08 -0.707106888
vn 0.70710665 -1.3262988e-08 -0.707106888
vn 0.411590338 -0.813133955 -0.411590427
vn -2.41369591e-08 -0.813133895 -0.58207655
vn -1.98944825e-08 1.32629889e-08 -1
vn -1.98944825e-08 1.32629889e-08 -1
vn -2.41369591e-08 -0.813133895 -0.58207655
vn -0.411590278 -0.813133955 -0.411590368
vn -0.707106709 -2.65259779e-08 -0.707106888
vn -0.707106709 -2.65259779e-08 -0.707106888
vn -0.411590278 -0.813133955 -0.411590368
vn -0.582076609 -0.813133836 -7.24108844e-08
vn -1 0 -9.94724303e-08
vn -1 0 -9.94724303e-08
vn -0.582076609 -0.813133836 -7.24108844e-08
vn -0.411590397 -0.813133836 0.411590308
vn -0.707106829 5.30519628e-08 0.707106829
vn -0.707106829 5.30519628e-08 0.707106829
vn -0.411590397 -0.813133836 0.411590308
vn -1.20684795e-08 -0.813133895 0.58207655
vn -1.98944861e-08 0 1
vn -1.98944861e-08 0 1
vn -1.20684795e-08 -0.813133895 0.58207655
vn 0.411590368 -0.813133955 0.411590338
vn 0.707106829 5.30519628e-08 0.707106709
vn 0.707106829 5.30519628e-08 0.707106709
vn 0.411590368 -0.813133955 0.411590338
vn 0.582076609 -0.813133836 -1.20684803e-07
vn 1 2.65259814e-08 -2.05576356e-07
vn 0.582076609 -0.813133836 -1.20684803e-07
vn -0.395112902 -0.918632627 5.7644165e-08
vn -0.279386938 -0.918632627 0.279386997
vn 0.411590338 -0.813133955 -0.411590427
vn 0.411590338 -0.813133955 -0.411590427
vn -0.279386938 -0.918632627 0.279386997
vn 5.24037791e-09 -0.918632567 0.395112872
vn -2.41369591e-08 -0.813133895 -0.58207655
vn -2.41369591e-08 -0.813133895 -0.58207655
vn 5.24037791e-09 -0.918632567 0.395112872
vn 0.279386967 -0.918632627 0.279387027
vn -0.411590278 -0.813133955 -0.411590368
vn -0.411590278 -0.813133955 -0.411590368
vn 0.279386967 -0.918632627 0.279387027
vn 0.395112872 -0.918632627 5.24037835e-09
vn -0.582076609 -0.813133836 -7.24108844e-08
vn -0.582076609 -0.813133836 -7.24108844e-08
vn 0.395112872 -0.918632627 5.24037835e-09
vn 0.279387087 -0.918632507 -0.279387057
vn -0.411590397 -0.813133836 0.411590308
vn -0.411590397 -0.813133836 0.411590308
vn 0.279387087 -0.918632507 -0.279387057
vn 0 -0.918632627 -0.395112872
vn -1.20684795e-08 -0.813133895 0.58207655
vn -1.20684795e-08 -0.813133895 0.58207655
vn 0 -0.918632627 -0.395112872
vn -0.279387057 -0.918632627 -0.279387027
vn 0.411590368 -0.813133955 0.411590338
vn 0.411590368 -0.813133955 0.411590338
vn -0.279387057 -0.918632627 -0.279387027
vn -0.395112902 -0.918632627 5.7644165e-08
vn 0.582076609 -0.813133836 -1.20684803e-07
vn -0.395112902 -0.918632627 5.7644165e-08
vn -1 -3.42102595e-07 1.65867931e-07
vn -0.707106709 -3.52469328e-07 0.707106888
vn -0.279386938 -0.918632627 0.279386997
vn -0.279386938 -0.918632627 0.279386997
vn -0.707106709 -3.52469328e-07 0.707106888
vn 2.07334896e-08 -3.213691e-07 1
vn 5.24037791e-09 -0.918632567 0.395112872
vn 5.24037791e-09 -0.918632567 0.395112872
vn 2.07334896e-08 -3.213691e-07 1
vn 0.707106709 -3.11002367e-07 0.707106829
vn 0.279386967 -0.918632627 0.279387027
vn 0.279386967 -0.918632627 0.279387027
vn 0.707106709 -3.11002367e-07 0.707106829
vn 1 -3.21369129e-07 8.29339655e-08
vn 0.395112872 -0.918632627 5.24037835e-09
vn 0.395112872 -0.918632627 5.24037835e-09
vn 1 -3.21369129e-07 8.29339655e-08
vn 0.707106829 -3.52469357e-07 -0.707106769
vn 0.279387087 -0.918632507 -0.279387057
vn 0.279387087 -0.918632507 -0.279387057
vn 0.707106829 -3.52469357e-07 -0.707106769
vn 1.03667448e-08 -3.213691e-07 -1
vn 0 -0.918632627 -0.395112872
vn 0 -0.918632627 -0.395112872
vn 1.03667448e-08 -3.213691e-07 -1
vn -0.707106888 -3.21369072e-07 -0.707106709
vn -0.279387057 -0.918632627 -0.279387027
vn -0.279387057 -0.918632627 -0.279387027
vn -0.707106888 -3.21369072e-07 -0.707106709
vn -1 -3.42102595e-07 1.65867931e-07
vn -0.395112902 -0.918632627 5.7644165e-08
vn -1 -3.42102595e-07 1.65867931e-07
vn -0.395113468 0.918632388 6.28845811e-08
vn -0.279387385 0.918632388 0.279387474
vn -0.707106709 -3.52469328e-07 0.707106888
vn -0.707106709 -3.52469328e-07 0.707106888
vn -0.279387385 0.918632388 0.279387474
vn 0 0.918632388 0.395113528
vn 2.07334896e-08 -3.213691e-07 1
vn 2.07334896e-08 -3.213691e-07 1
vn 0 0.918632388 0.395113528
vn 0.279387355 0.918632388 0.279387385
vn 0.707106709 -3.11002367e-07 0.707106829
vn 0.707106709 -3.11002367e-07 0.707106829
vn 0.279387355 0.918632388 0.279387385
vn 0.395113468 0.918632388 5.24038857e-09
vn 1 -3.21369129e-07 8.29339655e-08
vn 1 -3.21369129e-07 8.29339655e-08
vn 0.395113468 0.918632388 5.24038857e-09
vn 0.279387474 0.918632269 -0.279387414
vn 0.707106829 -3.52469357e-07 -0.707106769
vn 0.707106829 -3.52469357e-07 -0.707106769
vn 0.279387474 0.918632269 -0.279387414
vn 5.24038901e-09 0.918632388 -0.395113498
vn 1.03667448e-08 -3.213691e-07 -1
vn 1.03667448e-08 -3.213691e-07 -1
vn 5.24038901e-09 0.918632388 -0.395113498
vn -0.279387444 0.918632269 -0.279387444
vn -0.707106888 -3.21369072e-07 -0.707106709
vn -0.707106888 -3.21369072e-07 -0.707106709
vn -0.279387444 0.918632269 -0.279387444
vn -0.395113468 0.918632388 6.28845811e-08
vn -1 -3.42102595e-07 1.65867931e-07
vn -0.395113468 0.918632388 6.28845811e-08
vn 0.58207643 0.813134134 -7.24108986e-08
vn 0.411590099 0.813134015 -0.411590248
vn -0.279387385 0.918632388 0.279387474
vn -0.279387385 0.918632388 0.279387474
vn 0.411590099 0.813134015 -0.411590248
vn -2.41369644e-08 0.813134074 -0.58207643
vn 0 0.918632388 0.395113528
vn 0 0.918632388 0.395113528
vn -2.41369644e-08 0.813134074 -0.58207643
vn -0.411590159 0.813134015 -0.411590308
vn 0.279387355 0.918632388 0.279387385
vn 0.279387355 0.918632388 0.279387385
vn -0.411590159 0.813134015 -0.411590308
vn -0.58207643 0.813134074 -4.8273936e-08
vn 0.395113468 0.918632388 5.24038857e-09
vn 0.395113468 0.918632388 5.24038857e-09
vn -0.58207643 0.813134074 -4.8273936e-08
vn -0.411590129 0.813134193 0.411590129
vn 0.279387474 0.918632269 -0.279387414
vn 0.279387474 0.918632269 -0.279387414
vn -0.411590129 0.813134193 0.411590129
vn 0 0.813134074 0.58207643
vn 5.24038901e-09 0.918632388 -0.395113498
vn 5.24038901e-09 0.918632388 -0.395113498
vn 0 0.813134074 0.58207643
vn 0.411590129 0.813134193 0.41159007
vn -0.279387444 0.918632269 -0.279387444
vn -0.279387444 0.918632269 -0.279387444
vn 0.411590129 0.813134193 0.41159007
vn 0.58207643 0.813134134 -7.24108986e-08
vn -0.395113468 0.918632388 6.28845811e-08
vn 0.58207643 0.813134134 -7.24108986e-08
vn 1 2.65259814e-08 -2.05576356e-07
vn 0.70710665 -1.3262988e-08 -0.707106888
vn 0.411590099 0.813134015 -0.411590248
vn 0.411590099 0.813134015 -0.411590248
vn 0.70710665 -1.3262988e-08 -0.707106888
vn -1.98944825e-08 1.32629889e-08 -1
vn -2.41369644e-08 0.813134074 -0.58207643
vn -2.41369644e-08 0.813134074 -0.58207643
vn -1.98944825e-08 1.32629889e-08 -1
vn -0.707106709 -2.65259779e-08 -0.707106888
vn -0.411590159 0.813134015 -0.411590308
vn -0.411590159 0.813134015 -0.411590308
vn -0.707106709 -2.65259779e-08 -0.707106888
vn -1 0 -9.94724303e-08
vn -0.58207643 0.813134074 -4.8273936e-08
vn -0.58207643 0.813134074 -4.8273936e-08
vn -1 0 -9.94724303e-08
vn -0.707106829 5.30519628e-08 0.707106829
vn -0.411590129 0.813134193 0.411590129
vn -0.411590129 0.813134193 0.411590129
vn -0.707106829 5.30519628e-08 0.707106829
vn -1.98944861e-08 0 1
vn 0 0.813134074 0.58207643
vn 0 0.813134074 0.58207643
vn -1.98944861e-08 0 1
vn 0.707106829 5.30519628e-08 0.707106709
vn 0.411590129 0.813134193 0.41159007
vn 0.411590129 0.813134193 0.41159007
vn 0.707106829 5.30519628e-08 0.707106709
vn 1 2.65259814e-08 -2.05576356e-07
vn 0.58207643 0.813134134 -7.24108986e-08
g torus
f 1//1 9//2 10//3 2//4
f 2//5 10//6 11//7 3//8
f 3//9 11//10 12//11 4//12
f 4//13 12//14 13//15 5//16
f 5//17 13//18 14//19 6//20
f 6//21 14//22 15//23 7//24
f 7//25 15//26 16//27 8//28
f 8//29 16//30 9//31 1//32
f 9//33 17//34 18//35 10//36
f 10//37 18//38 19//39 11//40
f 11//41 19//42 20//43 12//44
f 12//45 20//46 21//47 13//48
f 13//49 21//50 22//51 14//52
f 14//53 22//54 23//55 15//56
f 15//57 23//58 24//59 16//60
f 16//61 24//62 17//63 9//64
f 17//65 25//66 26//67 18//68
f 18//69 26//70 27//71 19//72
f 19//73 27//74 28//75 20//76
f 20//77 28//78 29//79 21//80
f 21//81 29//82 30//83 22//84
f 22//85 30//86 31//87 23//88
f 23//89 31//90 32//91 24//92
f 24//93 32//94 25//95 17//96
f 25//97 33//98 34//99 26//100
f 26//101 34//102 35//103 27//104
f 27//105 35//106 36//107 28//108
f 28//109 36//110 37//111 29//112
f 29//113 37//114 38//115 30//116
f 30//117 38//118 39//119 31//120
f 31//121 39//122 40//123 32//124
f 32//125 40//126 33//127 25//128
f 33//129 41//130 42//131 34//132
f 34//133 42//134 43//135 35//136
f 35//137 43//138 44//139 36//140
f 36//141 44//142 45//143 37//144
f 37//145 45//146 46//147 38//148
f 38//149 46//150 47//151 39//152
f 39//153 47//154 48//155 40//156
f 40//157 48//158 41//159 33//160
f 41//161 1//162 2//163 42//164
f 42//165 2//166 3//167 43//168
f 43//169 3//170 4//171 44//172
f 44//173 4//174 5//175 45//176
f 45//177 5//178 6//179 46//180
f 46//181 6//182 7//183 47//184
f 47//185 7//186 8//187 48//188
f 48//189 8//190 1//191 41//192
